Coordinates
version=1
nRows=11
nColumns=40
inDegrees=yes

Units are S.I. units (second, meters, Newtons, ...)
Angles are in degrees.

endheader
time	pelvis_tilt	pelvis_list	pelvis_rotation	pelvis_tx	pelvis_ty	pelvis_tz	hip_flexion_r	hip_adduction_r	hip_rotation_r	knee_angle_r	knee_angle_r_beta	ankle_angle_r	subtalar_angle_r	mtp_angle_r	hip_flexion_l	hip_adduction_l	hip_rotation_l	knee_angle_l	knee_angle_l_beta	ankle_angle_l	subtalar_angle_l	mtp_angle_l	lumbar_extension	lumbar_bending	lumbar_rotation	arm_flex_r	arm_add_r	arm_rot_r	elbow_flex_r	pro_sup_r	wrist_flex_r	wrist_dev_r	arm_flex_l	arm_add_l	arm_rot_l	elbow_flex_l	pro_sup_l	wrist_flex_l	wrist_dev_l
     54.12500000	     -4.34042566	     -5.53807598	     -4.24046734	      1.18113828	      0.92921570	      0.48329550	     16.88240366	      1.86643319	    -10.15260736	     19.04965807	     19.04965807	      7.77212774	      2.27725524	     -1.38545340	      3.06645819	    -12.09295808	    -11.61440350	     30.06983708	     30.06983708	     15.99659701	     -9.21716718	     -4.95657739	     -8.78334873	      5.03227376	      0.48634400	     -3.44011428	    -11.36299732	     -6.39322730	     29.80728186	     45.47006147	      0.00000000	      0.00000000	      9.65767048	    -10.71221601	     -7.83537429	     56.03886737	     45.92574823	      0.00000000	      0.00000000
     54.13828571	     -4.23034723	     -5.51715566	     -4.04962344	      1.18254365	      0.92984425	      0.48645845	     16.22369989	      1.94946801	    -10.55503069	     18.99982285	     18.99982285	      8.39651377	      2.82623410	     -1.04817365	      4.12154258	    -12.50353364	    -10.53067793	     32.64166277	     32.64166277	     13.12553494	    -11.61631661	     -8.88749734	     -8.69852221	      4.93945028	      0.85661519	     -3.02603508	    -11.83685127	     -4.75389264	     32.76069389	     45.27967132	      0.00000000	      0.00000000	     10.50467528	     -9.76859439	     -9.39570570	     50.92225758	     46.06332851	      0.00000000	      0.00000000
     54.15157143	     -4.09182505	     -5.65643457	     -3.77696209	      1.18362632	      0.93022730	      0.48959674	     15.46484430	      2.26004066	    -10.81341883	     18.78345276	     18.78345276	      8.81079472	      2.95137266	     -1.12081871	      5.63768790	    -13.24972017	     -9.53267835	     36.16723872	     36.16723872	     11.66279862	    -12.67631200	     -9.41986248	     -8.77894575	      5.00001432	      0.76349522	     -1.54458328	    -11.96693370	     -4.68388031	     33.85841667	     45.24723517	      0.00000000	      0.00000000	      9.72018377	     -9.72466762	     -9.36311595	     49.82929079	     46.04754728	      0.00000000	      0.00000000
     54.16485714	     -4.07478335	     -5.70486569	     -3.44852599	      1.18430520	      0.93020137	      0.49234692	     14.95142451	      2.42655139	    -11.16776679	     18.72232870	     18.72232870	      9.19511439	      3.03505544	     -1.29992004	      7.43717411	    -13.71886657	     -8.10883422	     39.64326700	     39.64326700	      9.05574823	    -14.77570236	    -11.55330896	     -8.67027203	      5.03249601	      0.89423031	     -1.18156602	    -12.67363246	     -3.06016205	     37.86367657	     45.04940709	      0.00000000	      0.00000000	     10.27853260	     -9.25507355	    -10.19530965	     45.26587487	     46.13340098	      0.00000000	      0.00000000
     54.17814286	     -3.99734288	     -5.82197958	     -3.06407597	      1.18472331	      0.93002094	      0.49491299	     14.40629746	      2.66780198	    -11.44619631	     18.69320469	     18.69320469	      9.60157837	      2.95560331	     -1.54753622	      9.46131603	    -14.23377194	     -6.62528396	     43.56729741	     43.56729741	      7.43889343	    -15.85160455	    -11.05359468	     -8.70613020	      5.11644119	      0.85890665	     -0.10695882	    -13.16568336	     -2.39761796	     40.51298133	     44.97005243	      0.00000000	      0.00000000	     10.19476013	     -9.08366779	    -10.53218225	     42.49669751	     46.17129841	      0.00000000	      0.00000000
     54.19142857	     -3.91215745	     -5.94367121	     -2.64879464	      1.18485350	      0.92965064	      0.49723365	     13.92918850	      2.90367578	    -11.65912902	     18.76083937	     18.76083937	     10.03699354	      2.73590051	     -1.79972133	     11.63673162	    -14.64961775	     -5.06220110	     47.57480496	     47.57480496	      6.08528859	    -16.54466900	     -9.51501048	     -8.78450111	      5.22131766	      0.72803196	      1.16402558	    -13.60689806	     -2.15052120	     43.04352800	     44.90702923	      0.00000000	      0.00000000	     10.07030559	     -8.99271648	    -10.79350541	     39.87983184	     46.19558706	      0.00000000	      0.00000000
     54.20471429	     -3.71982921	     -6.17488620	     -2.21421717	      1.18484698	      0.92927893	      0.49939248	     13.33646948	      3.24088164	    -11.96152217	     18.81538180	     18.81538180	     10.47925185	      2.57113258	     -1.95015516	     13.65793999	    -15.13766028	     -3.58975694	     51.27998988	     51.27998988	      4.40560406	    -17.08098279	     -9.09589175	     -9.00777179	      5.40770801	      0.83676095	      2.97126869	    -13.97323051	     -2.31973358	     44.24607838	     44.88591770	      0.00000000	      0.00000000	      9.48635217	     -8.94604522	    -10.78338887	     38.94892400	     46.18369193	      0.00000000	      0.00000000
     54.21800000	     -3.74960665	     -6.17790149	     -1.73625755	      1.18446671	      0.92852897	      0.50109969	     13.13053472	      3.31746430	    -12.08738080	     19.05609990	     19.05609990	     10.93084375	      2.10066667	     -2.30340709	     16.18106052	    -15.09990070	     -1.88170297	     55.20815126	     55.20815126	      4.77182982	    -16.79735601	     -3.43975157	     -8.96908221	      5.44431640	      1.01367251	      3.35791021	    -14.82099694	     -1.75135981	     49.10217671	     44.73404210	      0.00000000	      0.00000000	     10.15029338	     -8.69613779	    -11.38126508	     34.50876303	     46.26077759	      0.00000000	      0.00000000
     54.23128571	     -3.68401907	     -6.24605890	     -1.25479327	      1.18400081	      0.92792088	      0.50273258	     12.80918304	      3.45727242	    -12.24667181	     19.26572406	     19.26572406	     11.41152509	      1.74460312	     -2.47871111	     18.32105085	    -15.18590621	     -0.53558094	     58.27687239	     58.27687239	      3.61118736	    -17.09620593	     -2.25419833	     -9.05737612	      5.50849132	      0.65330614	      5.25698656	    -15.01016364	     -2.03891503	     51.05546203	     44.70067931	      0.00000000	      0.00000000	      9.41353399	     -8.85986203	    -11.49009056	     33.21010540	     46.26427429	      0.00000000	      0.00000000
     54.24457143	     -3.61330984	     -6.27064749	     -0.76882657	      1.18338082	      0.92737454	      0.50414488	     12.53234540	      3.53691780	    -12.42673524	     19.53589292	     19.53589292	     11.84838848	      1.28618034	     -2.62451196	     20.41847775	    -15.15590965	      0.63707016	     60.99210497	     60.99210497	      3.28298304	    -17.17080042	      0.18236670	     -9.18434969	      5.50989190	      0.41988391	      6.88876450	    -15.36373766	     -2.15290725	     53.96627896	     44.63016844	      0.00000000	      0.00000000	      8.94179777	     -8.96320047	    -11.68799422	     31.45255803	     46.28716737	      0.00000000	      0.00000000
     54.25785714	     -3.47993119	     -6.30747335	     -0.30055265	      1.18274018	      0.92702000	      0.50535101	     12.14501310	      3.61338845	    -12.65552296	     19.72655748	     19.72655748	     12.29327011	      1.02685753	     -2.70800587	     22.41246660	    -15.10769881	      1.61709614	     63.36018985	     63.36018985	      4.19917819	    -16.82810250	      4.78363857	     -9.40896903	      5.56537125	      1.19251126	      7.44008592	    -16.37288848	     -2.21948097	     58.13317464	     44.55033526	      0.00000000	      0.00000000	      9.28995556	     -8.65878080	    -12.28511266	     29.25199295	     46.38844671	      0.00000000	      0.00000000
